<?xml version="1.0" encoding="utf-8" standalone="no"?>
<!DOCTYPE svg PUBLIC "-//W3C//DTD SVG 1.1//EN"
  "http://www.w3.org/Graphics/SVG/1.1/DTD/svg11.dtd">
<svg xmlns:xlink="http://www.w3.org/1999/xlink" width="287.165401pt" height="425.522438pt" viewBox="0 0 287.165401 425.522438" xmlns="http://www.w3.org/2000/svg" version="1.1">
 <metadata>
  <rdf:RDF xmlns:dc="http://purl.org/dc/elements/1.1/" xmlns:cc="http://creativecommons.org/ns#" xmlns:rdf="http://www.w3.org/1999/02/22-rdf-syntax-ns#">
   <cc:Work>
    <dc:type rdf:resource="http://purl.org/dc/dcmitype/StillImage"/>
    <dc:date>2025-10-27T15:24:14.319307</dc:date>
    <dc:format>image/svg+xml</dc:format>
    <dc:creator>
     <cc:Agent>
      <dc:title>Matplotlib v3.9.2, https://matplotlib.org/</dc:title>
     </cc:Agent>
    </dc:creator>
   </cc:Work>
  </rdf:RDF>
 </metadata>
 <defs>
  <style type="text/css">*{stroke-linejoin: round; stroke-linecap: butt}</style>
 </defs>
 <g id="figure_1">
  <g id="patch_1">
   <path d="M 0 425.522438 
L 287.165401 425.522438 
L 287.165401 0 
L 0 0 
z
" style="fill: #ffffff"/>
  </g>
  <g id="axes_1">
   <g id="patch_2">
    <path d="M 139.777074 81.721201 
C 139.591144 86.113811 138.553448 90.428733 136.721801 94.425565 
C 134.890153 98.422397 132.299214 102.025507 129.093336 105.034151 
C 125.887457 108.042795 122.127303 110.400041 118.022368 111.974558 
C 113.917432 113.549074 109.545392 114.311066 105.149832 114.21808 
C 100.754272 114.125094 96.418368 113.17889 92.383691 111.432184 
C 88.349014 109.685479 84.691913 107.171324 81.616138 104.029795 
C 78.540363 100.888265 76.104118 97.178808 74.443135 93.108091 
C 72.782153 89.037375 71.927864 84.682428 71.927864 80.285885 
C 71.927864 75.889341 72.782153 71.534395 74.443135 67.463678 
C 76.104118 63.392962 78.540363 59.683504 81.616138 56.541975 
C 84.691913 53.400445 88.349014 50.886291 92.383691 49.139585 
C 96.418368 47.39288 100.754272 46.446675 105.149832 46.35369 
C 109.545392 46.260704 113.917432 47.022696 118.022368 48.597212 
C 122.127303 50.171728 125.887457 52.528974 129.093336 55.537618 
C 132.299214 58.546262 134.890153 62.149373 136.721801 66.146204 
C 138.553448 70.143036 139.591144 74.457958 139.777074 78.850569 
C 139.590449 72.791757 138.22392 66.827099 135.754184 61.291359 
C 133.284447 55.755618 129.758588 50.754332 125.374492 46.568196 
C 120.990397 42.38206 115.831648 39.090882 110.187778 36.879378 
C 104.543907 34.667873 98.522515 33.578204 92.461549 33.671527 
C 86.400582 33.764851 80.415593 35.039388 74.842485 37.423606 
C 69.269377 39.807823 64.214401 43.256267 59.961265 47.575394 
C 55.70813 51.894522 52.337919 57.001989 50.039786 62.611143 
C 47.741652 68.220297 46.559409 74.2242 46.559409 80.285885 
C 46.559409 86.34757 47.741652 92.351472 50.039786 97.960626 
C 52.337919 103.56978 55.70813 108.677248 59.961265 112.996375 
C 64.214401 117.315503 69.269377 120.763946 74.842485 123.148164 
C 80.415593 125.532381 86.400582 126.806918 92.461549 126.900242 
C 98.522515 126.993566 104.543907 125.903896 110.187778 123.692392 
C 115.831648 121.480887 120.990397 118.189709 125.374492 114.003573 
C 129.758588 109.817437 133.284447 104.816152 135.754184 99.280411 
C 138.22392 93.74467 139.590449 87.780012 139.777074 81.721201 
" clip-path="url(#pb3d10cc27c)" style="fill: #8dc170; opacity: 0.8"/>
   </g>
   <g id="patch_3">
    <path d="M 139.777074 78.850569 
C 139.791807 79.328866 139.799174 79.807361 139.799174 80.285885 
C 139.799174 80.764409 139.791807 81.242904 139.777074 81.721201 
C 139.797314 81.24303 139.807438 80.764484 139.807438 80.285885 
C 139.807438 79.807285 139.797314 79.32874 139.777074 78.850569 
" clip-path="url(#pb3d10cc27c)" style="fill: #c70909; opacity: 0.8"/>
   </g>
   <g id="patch_4">
    <path d="M 139.777074 81.721201 
C 139.791807 81.242904 139.799174 80.764409 139.799174 80.285885 
C 139.799174 79.807361 139.791807 79.328866 139.777074 78.850569 
C 139.591144 74.457958 138.553448 70.143036 136.721801 66.146204 
C 134.890153 62.149373 132.299214 58.546262 129.093336 55.537618 
C 125.887457 52.528974 122.127303 50.171728 118.022368 48.597212 
C 113.917432 47.022696 109.545392 46.260704 105.149832 46.35369 
C 100.754272 46.446675 96.418368 47.39288 92.383691 49.139585 
C 88.349014 50.886291 84.691913 53.400445 81.616138 56.541975 
C 78.540363 59.683504 76.104118 63.392962 74.443135 67.463678 
C 72.782153 71.534395 71.927864 75.889341 71.927864 80.285885 
C 71.927864 84.682428 72.782153 89.037375 74.443135 93.108091 
C 76.104118 97.178808 78.540363 100.888265 81.616138 104.029795 
C 84.691913 107.171324 88.349014 109.685479 92.383691 111.432184 
C 96.418368 113.17889 100.754272 114.125094 105.149832 114.21808 
C 109.545392 114.311066 113.917432 113.549074 118.022368 111.974558 
C 122.127303 110.400041 125.887457 108.042795 129.093336 105.034151 
C 132.299214 102.025507 134.890153 98.422397 136.721801 94.425565 
C 138.553448 90.428733 139.591144 86.113811 139.777074 81.721201 
" clip-path="url(#pb3d10cc27c)" style="fill: #ee8d55; opacity: 0.8"/>
   </g>
   <g id="text_1">
    <text style="font: 9.6px 'Arial'; text-anchor: middle" x="59.243636" y="82.767635" transform="rotate(-0 59.243636 82.767635)">47.0</text>
   </g>
   <g id="text_2">
    <text style="font: 9.6px 'Arial'; text-anchor: middle" x="139.803306" y="82.767635" transform="rotate(-0 139.803306 82.767635)">0</text>
   </g>
   <g id="text_3">
    <text style="font: 9.6px 'Arial'; text-anchor: middle" x="105.863519" y="82.767635" transform="rotate(-0 105.863519 82.767635)">53.0</text>
   </g>
   <g id="text_4">
    <text style="font: 11.52px 'Arial'; text-anchor: end" x="93.179292" y="139.179551" transform="rotate(-0 93.179292 139.179551)">A</text>
   </g>
   <g id="text_5">
    <text style="font: 11.52px 'Arial'; text-anchor: start" x="105.867651" y="126.499455" transform="rotate(-0 105.867651 126.499455)">B</text>
   </g>
  </g>
  <g id="axes_2">
   <g id="legend_1">
    <g id="patch_5">
     <path d="M 177.746401 75.977885 
L 196.946401 75.977885 
L 196.946401 69.257885 
L 177.746401 69.257885 
z
" style="fill: #8dc170"/>
    </g>
    <g id="text_6">
     <text style="font: 9.6px 'Arial'; text-anchor: start" x="204.626401" y="75.977885" transform="rotate(-0 204.626401 75.977885)">apical IP-derived</text>
    </g>
    <g id="patch_6">
     <path d="M 177.746401 89.557385 
L 196.946401 89.557385 
L 196.946401 82.837385 
L 177.746401 82.837385 
z
" style="fill: #ef8706"/>
    </g>
    <g id="text_7">
     <text style="font: 9.6px 'Arial'; text-anchor: start" x="204.626401" y="89.557385" transform="rotate(-0 204.626401 89.557385)">basal IP-derived</text>
    </g>
   </g>
  </g>
  <g id="axes_3">
   <g id="patch_7">
    <path d="M 38.29625 413.424 
L 148.070597 413.424 
L 148.070597 169.804384 
L 38.29625 169.804384 
z
" style="fill: #ffffff"/>
   </g>
   <g id="patch_8">
    <path d="M 43.285993 413.424 
L 87.639264 413.424 
L 87.639264 281.288023 
L 43.285993 281.288023 
z
" clip-path="url(#p959532e816)" style="fill: #90b77a; opacity: 0.5"/>
   </g>
   <g id="patch_9">
    <path d="M 98.727582 413.424 
L 143.080854 413.424 
L 143.080854 261.834275 
L 98.727582 261.834275 
z
" clip-path="url(#p959532e816)" style="fill: #d28423; opacity: 0.5"/>
   </g>
   <g id="matplotlib.axis_1">
    <g id="ytick_1">
     <g id="line2d_1">
      <defs>
       <path id="m01970f9687" d="M 0 0 
L -4.8 0 
" style="stroke: #000000"/>
      </defs>
      <g>
       <use xlink:href="#m01970f9687" x="38.29625" y="413.424" style="stroke: #000000"/>
      </g>
     </g>
     <g id="text_8">
      <text style="font: 8.8px 'Arial'; text-anchor: end" x="29.99625" y="416.573438" transform="rotate(-0 29.99625 416.573438)">0</text>
     </g>
    </g>
    <g id="ytick_2">
     <g id="line2d_2">
      <g>
       <use xlink:href="#m01970f9687" x="38.29625" y="385.05143" style="stroke: #000000"/>
      </g>
     </g>
     <g id="text_9">
      <text style="font: 8.8px 'Arial'; text-anchor: end" x="29.99625" y="388.200867" transform="rotate(-0 29.99625 388.200867)">10</text>
     </g>
    </g>
    <g id="ytick_3">
     <g id="line2d_3">
      <g>
       <use xlink:href="#m01970f9687" x="38.29625" y="356.67886" style="stroke: #000000"/>
      </g>
     </g>
     <g id="text_10">
      <text style="font: 8.8px 'Arial'; text-anchor: end" x="29.99625" y="359.828297" transform="rotate(-0 29.99625 359.828297)">20</text>
     </g>
    </g>
    <g id="ytick_4">
     <g id="line2d_4">
      <g>
       <use xlink:href="#m01970f9687" x="38.29625" y="328.306289" style="stroke: #000000"/>
      </g>
     </g>
     <g id="text_11">
      <text style="font: 8.8px 'Arial'; text-anchor: end" x="29.99625" y="331.455727" transform="rotate(-0 29.99625 331.455727)">30</text>
     </g>
    </g>
    <g id="ytick_5">
     <g id="line2d_5">
      <g>
       <use xlink:href="#m01970f9687" x="38.29625" y="299.933719" style="stroke: #000000"/>
      </g>
     </g>
     <g id="text_12">
      <text style="font: 8.8px 'Arial'; text-anchor: end" x="29.99625" y="303.083157" transform="rotate(-0 29.99625 303.083157)">40</text>
     </g>
    </g>
    <g id="ytick_6">
     <g id="line2d_6">
      <g>
       <use xlink:href="#m01970f9687" x="38.29625" y="271.561149" style="stroke: #000000"/>
      </g>
     </g>
     <g id="text_13">
      <text style="font: 8.8px 'Arial'; text-anchor: end" x="29.99625" y="274.710586" transform="rotate(-0 29.99625 274.710586)">50</text>
     </g>
    </g>
    <g id="ytick_7">
     <g id="line2d_7">
      <g>
       <use xlink:href="#m01970f9687" x="38.29625" y="243.188579" style="stroke: #000000"/>
      </g>
     </g>
     <g id="text_14">
      <text style="font: 8.8px 'Arial'; text-anchor: end" x="29.99625" y="246.338016" transform="rotate(-0 29.99625 246.338016)">60</text>
     </g>
    </g>
    <g id="ytick_8">
     <g id="line2d_8">
      <g>
       <use xlink:href="#m01970f9687" x="38.29625" y="214.816008" style="stroke: #000000"/>
      </g>
     </g>
     <g id="text_15">
      <text style="font: 8.8px 'Arial'; text-anchor: end" x="29.99625" y="217.965446" transform="rotate(-0 29.99625 217.965446)">70</text>
     </g>
    </g>
    <g id="ytick_9">
     <g id="line2d_9">
      <g>
       <use xlink:href="#m01970f9687" x="38.29625" y="186.443438" style="stroke: #000000"/>
      </g>
     </g>
     <g id="text_16">
      <text style="font: 8.8px 'Arial'; text-anchor: end" x="29.99625" y="189.592876" transform="rotate(-0 29.99625 189.592876)">80</text>
     </g>
    </g>
    <g id="text_17">
     <text style="font: 9.6px 'Arial'; text-anchor: middle" x="14.1885" y="291.614192" transform="rotate(-90 14.1885 291.614192)">L2/3 cell type (%)</text>
    </g>
   </g>
   <g id="line2d_10">
    <path d="M 65.462629 297.161302 
L 65.462629 265.414743 
" clip-path="url(#p959532e816)" style="fill: none; stroke: #424242; stroke-width: 1.8; stroke-linecap: square"/>
   </g>
   <g id="line2d_11">
    <path d="M 120.904218 277.707555 
L 120.904218 245.960995 
" clip-path="url(#p959532e816)" style="fill: none; stroke: #424242; stroke-width: 1.8; stroke-linecap: square"/>
   </g>
   <g id="line2d_12">
    <path d="M 65.462629 361.716979 
L 120.904218 181.405318 
" clip-path="url(#p959532e816)" style="fill: none; stroke: #808080; stroke-opacity: 0.3; stroke-width: 2; stroke-linecap: square"/>
   </g>
   <g id="line2d_13">
    <path d="M 65.462629 285.514872 
L 120.904218 257.607426 
" clip-path="url(#p959532e816)" style="fill: none; stroke: #808080; stroke-opacity: 0.3; stroke-width: 2; stroke-linecap: square"/>
   </g>
   <g id="line2d_14">
    <path d="M 65.462629 338.389104 
L 120.904218 204.733194 
" clip-path="url(#p959532e816)" style="fill: none; stroke: #808080; stroke-opacity: 0.3; stroke-width: 2; stroke-linecap: square"/>
   </g>
   <g id="line2d_15">
    <path d="M 65.462629 211.54225 
L 120.904218 331.580047 
" clip-path="url(#p959532e816)" style="fill: none; stroke: #808080; stroke-opacity: 0.3; stroke-width: 2; stroke-linecap: square"/>
   </g>
   <g id="line2d_16">
    <path d="M 65.462629 310.732235 
L 120.904218 232.390063 
" clip-path="url(#p959532e816)" style="fill: none; stroke: #808080; stroke-opacity: 0.3; stroke-width: 2; stroke-linecap: square"/>
   </g>
   <g id="line2d_17">
    <path d="M 65.462629 277.088273 
L 120.904218 266.034025 
" clip-path="url(#p959532e816)" style="fill: none; stroke: #808080; stroke-opacity: 0.3; stroke-width: 2; stroke-linecap: square"/>
   </g>
   <g id="line2d_18">
    <path d="M 65.462629 186.443438 
L 120.904218 356.67886 
" clip-path="url(#p959532e816)" style="fill: none; stroke: #808080; stroke-opacity: 0.3; stroke-width: 2; stroke-linecap: square"/>
   </g>
   <g id="line2d_19">
    <path d="M 65.462629 280.427577 
L 120.904218 262.694721 
" clip-path="url(#p959532e816)" style="fill: none; stroke: #808080; stroke-opacity: 0.3; stroke-width: 2; stroke-linecap: square"/>
   </g>
   <g id="line2d_20">
    <path d="M 65.462629 259.442212 
L 120.904218 283.680086 
" clip-path="url(#p959532e816)" style="fill: none; stroke: #808080; stroke-opacity: 0.3; stroke-width: 2; stroke-linecap: square"/>
   </g>
   <g id="line2d_21">
    <path d="M 65.462629 255.79861 
L 120.904218 287.323688 
" clip-path="url(#p959532e816)" style="fill: none; stroke: #808080; stroke-opacity: 0.3; stroke-width: 2; stroke-linecap: square"/>
   </g>
   <g id="line2d_22">
    <path d="M 65.462629 327.072699 
L 120.904218 216.049598 
" clip-path="url(#p959532e816)" style="fill: none; stroke: #808080; stroke-opacity: 0.3; stroke-width: 2; stroke-linecap: square"/>
   </g>
   <g id="patch_10">
    <path d="M 38.29625 413.424 
L 38.29625 169.804384 
" style="fill: none; stroke: #000000; stroke-linejoin: miter; stroke-linecap: square"/>
   </g>
   <g id="patch_11">
    <path d="M 38.29625 413.424 
L 148.070597 413.424 
" style="fill: none; stroke: #000000; stroke-linejoin: miter; stroke-linecap: square"/>
   </g>
   <g id="PathCollection_1">
    <defs>
     <path id="C0_0_533cd7cefd" d="M 0 5 
C 1.326016 5 2.597899 4.473168 3.535534 3.535534 
C 4.473168 2.597899 5 1.326016 5 -0 
C 5 -1.326016 4.473168 -2.597899 3.535534 -3.535534 
C 2.597899 -4.473168 1.326016 -5 0 -5 
C -1.326016 -5 -2.597899 -4.473168 -3.535534 -3.535534 
C -4.473168 -2.597899 -5 -1.326016 -5 0 
C -5 1.326016 -4.473168 2.597899 -3.535534 3.535534 
C -2.597899 4.473168 -1.326016 5 0 5 
z
"/>
    </defs>
    <g clip-path="url(#p959532e816)">
     <use xlink:href="#C0_0_533cd7cefd" x="65.462629" y="361.716979" style="fill: #8dc170"/>
    </g>
    <g clip-path="url(#p959532e816)">
     <use xlink:href="#C0_0_533cd7cefd" x="65.462629" y="285.514872" style="fill: #8dc170"/>
    </g>
    <g clip-path="url(#p959532e816)">
     <use xlink:href="#C0_0_533cd7cefd" x="65.462629" y="338.389104" style="fill: #8dc170"/>
    </g>
    <g clip-path="url(#p959532e816)">
     <use xlink:href="#C0_0_533cd7cefd" x="65.462629" y="211.54225" style="fill: #8dc170"/>
    </g>
    <g clip-path="url(#p959532e816)">
     <use xlink:href="#C0_0_533cd7cefd" x="65.462629" y="310.732235" style="fill: #8dc170"/>
    </g>
    <g clip-path="url(#p959532e816)">
     <use xlink:href="#C0_0_533cd7cefd" x="65.462629" y="277.088273" style="fill: #8dc170"/>
    </g>
    <g clip-path="url(#p959532e816)">
     <use xlink:href="#C0_0_533cd7cefd" x="65.462629" y="186.443438" style="fill: #8dc170"/>
    </g>
    <g clip-path="url(#p959532e816)">
     <use xlink:href="#C0_0_533cd7cefd" x="65.462629" y="280.427577" style="fill: #8dc170"/>
    </g>
    <g clip-path="url(#p959532e816)">
     <use xlink:href="#C0_0_533cd7cefd" x="65.462629" y="259.442212" style="fill: #8dc170"/>
    </g>
    <g clip-path="url(#p959532e816)">
     <use xlink:href="#C0_0_533cd7cefd" x="65.462629" y="255.79861" style="fill: #8dc170"/>
    </g>
    <g clip-path="url(#p959532e816)">
     <use xlink:href="#C0_0_533cd7cefd" x="65.462629" y="327.072699" style="fill: #8dc170"/>
    </g>
   </g>
   <g id="PathCollection_2">
    <defs>
     <path id="C1_0_604ad220ca" d="M 0 5 
C 1.326016 5 2.597899 4.473168 3.535534 3.535534 
C 4.473168 2.597899 5 1.326016 5 -0 
C 5 -1.326016 4.473168 -2.597899 3.535534 -3.535534 
C 2.597899 -4.473168 1.326016 -5 0 -5 
C -1.326016 -5 -2.597899 -4.473168 -3.535534 -3.535534 
C -4.473168 -2.597899 -5 -1.326016 -5 0 
C -5 1.326016 -4.473168 2.597899 -3.535534 3.535534 
C -2.597899 4.473168 -1.326016 5 0 5 
z
"/>
    </defs>
    <g clip-path="url(#p959532e816)">
     <use xlink:href="#C1_0_604ad220ca" x="120.904218" y="181.405318" style="fill: #ef8706"/>
    </g>
    <g clip-path="url(#p959532e816)">
     <use xlink:href="#C1_0_604ad220ca" x="120.904218" y="257.607426" style="fill: #ef8706"/>
    </g>
    <g clip-path="url(#p959532e816)">
     <use xlink:href="#C1_0_604ad220ca" x="120.904218" y="204.733194" style="fill: #ef8706"/>
    </g>
    <g clip-path="url(#p959532e816)">
     <use xlink:href="#C1_0_604ad220ca" x="120.904218" y="331.580047" style="fill: #ef8706"/>
    </g>
    <g clip-path="url(#p959532e816)">
     <use xlink:href="#C1_0_604ad220ca" x="120.904218" y="232.390063" style="fill: #ef8706"/>
    </g>
    <g clip-path="url(#p959532e816)">
     <use xlink:href="#C1_0_604ad220ca" x="120.904218" y="266.034025" style="fill: #ef8706"/>
    </g>
    <g clip-path="url(#p959532e816)">
     <use xlink:href="#C1_0_604ad220ca" x="120.904218" y="356.67886" style="fill: #ef8706"/>
    </g>
    <g clip-path="url(#p959532e816)">
     <use xlink:href="#C1_0_604ad220ca" x="120.904218" y="262.694721" style="fill: #ef8706"/>
    </g>
    <g clip-path="url(#p959532e816)">
     <use xlink:href="#C1_0_604ad220ca" x="120.904218" y="283.680086" style="fill: #ef8706"/>
    </g>
    <g clip-path="url(#p959532e816)">
     <use xlink:href="#C1_0_604ad220ca" x="120.904218" y="287.323688" style="fill: #ef8706"/>
    </g>
    <g clip-path="url(#p959532e816)">
     <use xlink:href="#C1_0_604ad220ca" x="120.904218" y="216.049598" style="fill: #ef8706"/>
    </g>
   </g>
  </g>
  <g id="axes_4">
   <g id="patch_12">
    <path d="M 194.003597 413.424 
L 259.868205 413.424 
L 259.868205 169.804384 
L 194.003597 169.804384 
z
" style="fill: #ffffff"/>
   </g>
   <g id="PolyCollection_1">
    <defs>
     <path id="m2f15375b5c" d="M 223.64267 -239.639097 
L 222.007612 -239.639097 
L 221.674035 -237.659475 
L 221.288279 -235.679854 
L 220.845704 -233.700232 
L 220.341981 -231.72061 
L 219.773263 -229.740988 
L 219.136366 -227.761366 
L 218.428966 -225.781745 
L 217.649789 -223.802123 
L 216.798799 -221.822501 
L 215.877373 -219.842879 
L 214.888446 -217.863258 
L 213.836633 -215.883636 
L 212.7283 -213.904014 
L 211.571598 -211.924392 
L 210.376429 -209.94477 
L 209.154358 -207.965149 
L 207.918458 -205.985527 
L 206.683094 -204.005905 
L 205.463638 -202.026283 
L 204.27613 -200.046662 
L 203.136885 -198.06704 
L 202.062063 -196.087418 
L 201.06721 -194.107796 
L 200.166787 -192.128175 
L 199.373705 -190.148553 
L 198.698885 -188.168931 
L 198.150855 -186.189309 
L 197.735416 -184.209687 
L 197.455375 -182.230066 
L 197.310374 -180.250444 
L 197.296827 -178.270822 
L 197.407954 -176.2912 
L 197.633941 -174.311579 
L 197.96221 -172.331957 
L 198.377786 -170.352335 
L 198.863768 -168.372713 
L 199.401878 -166.393091 
L 199.97306 -164.41347 
L 200.55812 -162.433848 
L 201.138379 -160.454226 
L 201.696305 -158.474604 
L 202.216096 -156.494983 
L 202.684213 -154.515361 
L 203.089802 -152.535739 
L 203.425029 -150.556117 
L 203.685276 -148.576496 
L 203.869223 -146.596874 
L 203.978794 -144.617252 
L 204.018974 -142.63763 
L 203.99752 -140.658008 
L 203.924564 -138.678387 
L 203.812136 -136.698765 
L 203.67364 -134.719143 
L 203.523282 -132.739521 
L 203.37551 -130.7599 
L 203.244458 -128.780278 
L 203.143441 -126.800656 
L 203.084513 -124.821034 
L 203.078097 -122.841412 
L 203.132712 -120.861791 
L 203.25479 -118.882169 
L 203.448592 -116.902547 
L 203.716217 -114.922925 
L 204.057689 -112.943304 
L 204.471127 -110.963682 
L 204.952955 -108.98406 
L 205.498172 -107.004438 
L 206.100631 -105.024817 
L 206.753333 -103.045195 
L 207.448715 -101.065573 
L 208.178917 -99.085951 
L 208.936022 -97.106329 
L 209.712262 -95.126708 
L 210.500181 -93.147086 
L 211.292769 -91.167464 
L 212.083545 -89.187842 
L 212.866616 -87.208221 
L 213.636704 -85.228599 
L 214.389151 -83.248977 
L 215.1199 -81.269355 
L 215.825476 -79.289733 
L 216.502952 -77.310112 
L 217.149913 -75.33049 
L 217.764425 -73.350868 
L 218.345005 -71.371246 
L 218.890586 -69.391625 
L 219.400502 -67.412003 
L 219.874457 -65.432381 
L 220.312509 -63.452759 
L 220.715043 -61.473138 
L 221.082756 -59.493516 
L 221.416626 -57.513894 
L 221.717886 -55.534272 
L 221.987993 -53.55465 
L 222.228593 -51.575029 
L 222.441487 -49.595407 
L 222.628591 -47.615785 
L 222.791894 -45.636163 
L 222.933427 -43.656542 
L 223.64267 -43.656542 
L 223.64267 -43.656542 
L 223.64267 -45.636163 
L 223.64267 -47.615785 
L 223.64267 -49.595407 
L 223.64267 -51.575029 
L 223.64267 -53.55465 
L 223.64267 -55.534272 
L 223.64267 -57.513894 
L 223.64267 -59.493516 
L 223.64267 -61.473138 
L 223.64267 -63.452759 
L 223.64267 -65.432381 
L 223.64267 -67.412003 
L 223.64267 -69.391625 
L 223.64267 -71.371246 
L 223.64267 -73.350868 
L 223.64267 -75.33049 
L 223.64267 -77.310112 
L 223.64267 -79.289733 
L 223.64267 -81.269355 
L 223.64267 -83.248977 
L 223.64267 -85.228599 
L 223.64267 -87.208221 
L 223.64267 -89.187842 
L 223.64267 -91.167464 
L 223.64267 -93.147086 
L 223.64267 -95.126708 
L 223.64267 -97.106329 
L 223.64267 -99.085951 
L 223.64267 -101.065573 
L 223.64267 -103.045195 
L 223.64267 -105.024817 
L 223.64267 -107.004438 
L 223.64267 -108.98406 
L 223.64267 -110.963682 
L 223.64267 -112.943304 
L 223.64267 -114.922925 
L 223.64267 -116.902547 
L 223.64267 -118.882169 
L 223.64267 -120.861791 
L 223.64267 -122.841412 
L 223.64267 -124.821034 
L 223.64267 -126.800656 
L 223.64267 -128.780278 
L 223.64267 -130.7599 
L 223.64267 -132.739521 
L 223.64267 -134.719143 
L 223.64267 -136.698765 
L 223.64267 -138.678387 
L 223.64267 -140.658008 
L 223.64267 -142.63763 
L 223.64267 -144.617252 
L 223.64267 -146.596874 
L 223.64267 -148.576496 
L 223.64267 -150.556117 
L 223.64267 -152.535739 
L 223.64267 -154.515361 
L 223.64267 -156.494983 
L 223.64267 -158.474604 
L 223.64267 -160.454226 
L 223.64267 -162.433848 
L 223.64267 -164.41347 
L 223.64267 -166.393091 
L 223.64267 -168.372713 
L 223.64267 -170.352335 
L 223.64267 -172.331957 
L 223.64267 -174.311579 
L 223.64267 -176.2912 
L 223.64267 -178.270822 
L 223.64267 -180.250444 
L 223.64267 -182.230066 
L 223.64267 -184.209687 
L 223.64267 -186.189309 
L 223.64267 -188.168931 
L 223.64267 -190.148553 
L 223.64267 -192.128175 
L 223.64267 -194.107796 
L 223.64267 -196.087418 
L 223.64267 -198.06704 
L 223.64267 -200.046662 
L 223.64267 -202.026283 
L 223.64267 -204.005905 
L 223.64267 -205.985527 
L 223.64267 -207.965149 
L 223.64267 -209.94477 
L 223.64267 -211.924392 
L 223.64267 -213.904014 
L 223.64267 -215.883636 
L 223.64267 -217.863258 
L 223.64267 -219.842879 
L 223.64267 -221.822501 
L 223.64267 -223.802123 
L 223.64267 -225.781745 
L 223.64267 -227.761366 
L 223.64267 -229.740988 
L 223.64267 -231.72061 
L 223.64267 -233.700232 
L 223.64267 -235.679854 
L 223.64267 -237.659475 
L 223.64267 -239.639097 
z
" style="stroke: #3e3e3e"/>
    </defs>
    <g clip-path="url(#p0a6991ce22)">
     <use xlink:href="#m2f15375b5c" x="0" y="425.522438" style="fill: #90b77a; stroke: #3e3e3e"/>
    </g>
   </g>
   <g id="PolyCollection_2">
    <defs>
     <path id="mc28b0d604a" d="M 232.058673 -244.644434 
L 230.229131 -244.644434 
L 230.229131 -242.40734 
L 230.229131 -240.170245 
L 230.229131 -237.93315 
L 230.229131 -235.696056 
L 230.229131 -233.458961 
L 230.229131 -231.221866 
L 230.229131 -228.984771 
L 230.229131 -226.747677 
L 230.229131 -224.510582 
L 230.229131 -222.273487 
L 230.229131 -220.036392 
L 230.229131 -217.799298 
L 230.229131 -215.562203 
L 230.229131 -213.325108 
L 230.229131 -211.088014 
L 230.229131 -208.850919 
L 230.229131 -206.613824 
L 230.229131 -204.376729 
L 230.229131 -202.139635 
L 230.229131 -199.90254 
L 230.229131 -197.665445 
L 230.229131 -195.42835 
L 230.229131 -193.191256 
L 230.229131 -190.954161 
L 230.229131 -188.717066 
L 230.229131 -186.479972 
L 230.229131 -184.242877 
L 230.229131 -182.005782 
L 230.229131 -179.768687 
L 230.229131 -177.531593 
L 230.229131 -175.294498 
L 230.229131 -173.057403 
L 230.229131 -170.820308 
L 230.229131 -168.583214 
L 230.229131 -166.346119 
L 230.229131 -164.109024 
L 230.229131 -161.87193 
L 230.229131 -159.634835 
L 230.229131 -157.39774 
L 230.229131 -155.160645 
L 230.229131 -152.923551 
L 230.229131 -150.686456 
L 230.229131 -148.449361 
L 230.229131 -146.212266 
L 230.229131 -143.975172 
L 230.229131 -141.738077 
L 230.229131 -139.500982 
L 230.229131 -137.263888 
L 230.229131 -135.026793 
L 230.229131 -132.789698 
L 230.229131 -130.552603 
L 230.229131 -128.315509 
L 230.229131 -126.078414 
L 230.229131 -123.841319 
L 230.229131 -121.604224 
L 230.229131 -119.36713 
L 230.229131 -117.130035 
L 230.229131 -114.89294 
L 230.229131 -112.655846 
L 230.229131 -110.418751 
L 230.229131 -108.181656 
L 230.229131 -105.944561 
L 230.229131 -103.707467 
L 230.229131 -101.470372 
L 230.229131 -99.233277 
L 230.229131 -96.996182 
L 230.229131 -94.759088 
L 230.229131 -92.521993 
L 230.229131 -90.284898 
L 230.229131 -88.047803 
L 230.229131 -85.810709 
L 230.229131 -83.573614 
L 230.229131 -81.336519 
L 230.229131 -79.099425 
L 230.229131 -76.86233 
L 230.229131 -74.625235 
L 230.229131 -72.38814 
L 230.229131 -70.151046 
L 230.229131 -67.913951 
L 230.229131 -65.676856 
L 230.229131 -63.439761 
L 230.229131 -61.202667 
L 230.229131 -58.965572 
L 230.229131 -56.728477 
L 230.229131 -54.491383 
L 230.229131 -52.254288 
L 230.229131 -50.017193 
L 230.229131 -47.780098 
L 230.229131 -45.543004 
L 230.229131 -43.305909 
L 230.229131 -41.068814 
L 230.229131 -38.831719 
L 230.229131 -36.594625 
L 230.229131 -34.35753 
L 230.229131 -32.120435 
L 230.229131 -29.883341 
L 230.229131 -27.646246 
L 230.229131 -25.409151 
L 230.229131 -23.172056 
L 230.851844 -23.172056 
L 230.851844 -23.172056 
L 230.972701 -25.409151 
L 231.110362 -27.646246 
L 231.265769 -29.883341 
L 231.439661 -32.120435 
L 231.632536 -34.35753 
L 231.844627 -36.594625 
L 232.075882 -38.831719 
L 232.325974 -41.068814 
L 232.594311 -43.305909 
L 232.880081 -45.543004 
L 233.182309 -47.780098 
L 233.499931 -50.017193 
L 233.831892 -52.254288 
L 234.177244 -54.491383 
L 234.535258 -56.728477 
L 234.905521 -58.965572 
L 235.288034 -61.202667 
L 235.683277 -63.439761 
L 236.092249 -65.676856 
L 236.516469 -67.913951 
L 236.957929 -70.151046 
L 237.419003 -72.38814 
L 237.902303 -74.625235 
L 238.410495 -76.86233 
L 238.946071 -79.099425 
L 239.511098 -81.336519 
L 240.106955 -83.573614 
L 240.734071 -85.810709 
L 241.391687 -88.047803 
L 242.077666 -90.284898 
L 242.788361 -92.521993 
L 243.518555 -94.759088 
L 244.261502 -96.996182 
L 245.009053 -99.233277 
L 245.751889 -101.470372 
L 246.479841 -103.707467 
L 247.182294 -105.944561 
L 247.848656 -108.181656 
L 248.468857 -110.418751 
L 249.033875 -112.655846 
L 249.53623 -114.89294 
L 249.970441 -117.130035 
L 250.333395 -119.36713 
L 250.624622 -121.604224 
L 250.84644 -123.841319 
L 251.003963 -126.078414 
L 251.10497 -128.315509 
L 251.159619 -130.552603 
L 251.180041 -132.789698 
L 251.179808 -135.026793 
L 251.17332 -137.263888 
L 251.175116 -139.500982 
L 251.199172 -141.738077 
L 251.258197 -143.975172 
L 251.362969 -146.212266 
L 251.521754 -148.449361 
L 251.739822 -150.686456 
L 252.019094 -152.923551 
L 252.357936 -155.160645 
L 252.75111 -157.39774 
L 253.189884 -159.634835 
L 253.662299 -161.87193 
L 254.153581 -164.109024 
L 254.646682 -166.346119 
L 255.122915 -168.583214 
L 255.562674 -170.820308 
L 255.946187 -173.057403 
L 256.254286 -175.294498 
L 256.469146 -177.531593 
L 256.574974 -179.768687 
L 256.558606 -182.005782 
L 256.410003 -184.242877 
L 256.122605 -186.479972 
L 255.693561 -188.717066 
L 255.123787 -190.954161 
L 254.417901 -193.191256 
L 253.583996 -195.42835 
L 252.633301 -197.665445 
L 251.579731 -199.90254 
L 250.439356 -202.139635 
L 249.229805 -204.376729 
L 247.969657 -206.613824 
L 246.677821 -208.850919 
L 245.372943 -211.088014 
L 244.072869 -213.325108 
L 242.794169 -215.562203 
L 241.551752 -217.799298 
L 240.358568 -220.036392 
L 239.225411 -222.273487 
L 238.160818 -224.510582 
L 237.171058 -226.747677 
L 236.2602 -228.984771 
L 235.430254 -231.221866 
L 234.681368 -233.458961 
L 234.01206 -235.696056 
L 233.419476 -237.93315 
L 232.899667 -240.170245 
L 232.447851 -242.40734 
L 232.058673 -244.644434 
z
" style="stroke: #3e3e3e"/>
    </defs>
    <g clip-path="url(#p0a6991ce22)">
     <use xlink:href="#mc28b0d604a" x="0" y="425.522438" style="fill: #d28423; stroke: #3e3e3e"/>
    </g>
   </g>
   <g id="matplotlib.axis_2">
    <g id="ytick_10">
     <g id="line2d_23">
      <g>
       <use xlink:href="#m01970f9687" x="194.003597" y="200.961808" style="stroke: #000000"/>
      </g>
     </g>
     <g id="text_18">
      <text style="font: 8.8px 'Arial'; text-anchor: end" x="185.703597" y="204.111246" transform="rotate(-0 185.703597 204.111246)">100</text>
     </g>
    </g>
    <g id="ytick_11">
     <g id="line2d_24">
      <g>
       <use xlink:href="#m01970f9687" x="194.003597" y="233.462745" style="stroke: #000000"/>
      </g>
     </g>
     <g id="text_19">
      <text style="font: 8.8px 'Arial'; text-anchor: end" x="185.703597" y="236.612183" transform="rotate(-0 185.703597 236.612183)">150</text>
     </g>
    </g>
    <g id="ytick_12">
     <g id="line2d_25">
      <g>
       <use xlink:href="#m01970f9687" x="194.003597" y="265.963683" style="stroke: #000000"/>
      </g>
     </g>
     <g id="text_20">
      <text style="font: 8.8px 'Arial'; text-anchor: end" x="185.703597" y="269.11312" transform="rotate(-0 185.703597 269.11312)">200</text>
     </g>
    </g>
    <g id="ytick_13">
     <g id="line2d_26">
      <g>
       <use xlink:href="#m01970f9687" x="194.003597" y="298.46462" style="stroke: #000000"/>
      </g>
     </g>
     <g id="text_21">
      <text style="font: 8.8px 'Arial'; text-anchor: end" x="185.703597" y="301.614057" transform="rotate(-0 185.703597 301.614057)">250</text>
     </g>
    </g>
    <g id="ytick_14">
     <g id="line2d_27">
      <g>
       <use xlink:href="#m01970f9687" x="194.003597" y="330.965557" style="stroke: #000000"/>
      </g>
     </g>
     <g id="text_22">
      <text style="font: 8.8px 'Arial'; text-anchor: end" x="185.703597" y="334.114994" transform="rotate(-0 185.703597 334.114994)">300</text>
     </g>
    </g>
    <g id="ytick_15">
     <g id="line2d_28">
      <g>
       <use xlink:href="#m01970f9687" x="194.003597" y="363.466494" style="stroke: #000000"/>
      </g>
     </g>
     <g id="text_23">
      <text style="font: 8.8px 'Arial'; text-anchor: end" x="185.703597" y="366.615932" transform="rotate(-0 185.703597 366.615932)">350</text>
     </g>
    </g>
    <g id="ytick_16">
     <g id="line2d_29">
      <g>
       <use xlink:href="#m01970f9687" x="194.003597" y="395.967431" style="stroke: #000000"/>
      </g>
     </g>
     <g id="text_24">
      <text style="font: 8.8px 'Arial'; text-anchor: end" x="185.703597" y="399.116869" transform="rotate(-0 185.703597 399.116869)">400</text>
     </g>
    </g>
    <g id="text_25">
     <text style="font: 9.6px 'Arial'; text-anchor: middle" x="165.002222" y="291.614192" transform="rotate(-90 165.002222 291.614192)">Pial distance (μm)</text>
    </g>
   </g>
   <g id="line2d_30">
    <defs>
     <path id="m9bc0007438" d="M 0 2.707159 
C 0.717947 2.707159 1.406585 2.421915 1.91425 1.91425 
C 2.421915 1.406585 2.707159 0.717947 2.707159 0 
C 2.707159 -0.717947 2.421915 -1.406585 1.91425 -1.91425 
C 1.406585 -2.421915 0.717947 -2.707159 0 -2.707159 
C -0.717947 -2.707159 -1.406585 -2.421915 -1.91425 -1.91425 
C -2.421915 -1.406585 -2.707159 -0.717947 -2.707159 0 
C -2.707159 0.717947 -2.421915 1.406585 -1.91425 1.91425 
C -1.406585 2.421915 -0.717947 2.707159 0 2.707159 
z
" style="stroke: #000000; stroke-width: 1.62"/>
    </defs>
    <g clip-path="url(#p0a6991ce22)">
     <use xlink:href="#m9bc0007438" x="210.469749" y="274.019042" style="stroke: #000000; stroke-width: 1.62"/>
    </g>
   </g>
   <g id="line2d_31">
    <path d="M 210.469749 255.214325 
L 210.469749 294.98666 
" clip-path="url(#p0a6991ce22)" style="fill: none; stroke: #000000; stroke-width: 2.16; stroke-linecap: square"/>
   </g>
   <g id="line2d_32">
    <path clip-path="url(#p0a6991ce22)" style="fill: none; stroke: #000000; stroke-width: 2.16; stroke-linecap: square"/>
   </g>
   <g id="line2d_33">
    <g clip-path="url(#p0a6991ce22)">
     <use xlink:href="#m9bc0007438" x="243.402053" y="274.44326" style="stroke: #000000; stroke-width: 1.62"/>
    </g>
   </g>
   <g id="line2d_34">
    <path clip-path="url(#p0a6991ce22)" style="fill: none; stroke: #000000; stroke-width: 2.16; stroke-linecap: square"/>
   </g>
   <g id="line2d_35">
    <path d="M 243.402053 252.291712 
L 243.402053 297.086242 
" clip-path="url(#p0a6991ce22)" style="fill: none; stroke: #000000; stroke-width: 2.16; stroke-linecap: square"/>
   </g>
   <g id="patch_13">
    <path d="M 194.003597 413.424 
L 194.003597 169.804384 
" style="fill: none; stroke: #000000; stroke-linejoin: miter; stroke-linecap: square"/>
   </g>
   <g id="patch_14">
    <path d="M 194.003597 413.424 
L 259.868205 413.424 
" style="fill: none; stroke: #000000; stroke-linejoin: miter; stroke-linecap: square"/>
   </g>
  </g>
 </g>
 <defs>
  <clipPath id="pb3d10cc27c">
   <rect x="38.29625" y="25.402843" width="109.774347" height="109.766083"/>
  </clipPath>
  <clipPath id="p959532e816">
   <rect x="38.29625" y="169.804384" width="109.774347" height="243.619616"/>
  </clipPath>
  <clipPath id="p0a6991ce22">
   <rect x="194.003597" y="169.804384" width="65.864608" height="243.619616"/>
  </clipPath>
 </defs>
</svg>
